Coordinates
version=1
nRows=11
nColumns=36
inDegrees=yes

Units are S.I. units (second, meters, Newtons, ...)
If the header above contains a line with 'inDegrees', this indicates whether rotational values are in degrees (yes) or radians (no).

endheader
time	pelvis_tilt	pelvis_list	pelvis_rotation	pelvis_tx	pelvis_ty	pelvis_tz	hip_flexion_r	hip_adduction_r	hip_rotation_r	knee_angle_r	knee_angle_r_beta	ankle_angle_r	subtalar_angle_r	mtp_angle_r	hip_flexion_l	hip_adduction_l	hip_rotation_l	knee_angle_l	knee_angle_l_beta	ankle_angle_l	subtalar_angle_l	mtp_angle_l	lumbar_extension	lumbar_bending	lumbar_rotation	arm_flex_r	arm_add_r	arm_rot_r	elbow_flex_r	pro_sup_r	arm_flex_l	arm_add_l	arm_rot_l	elbow_flex_l	pro_sup_l
      0.00000000	      9.90701168	     -0.42582536	      1.07201015	     -0.53493240	      0.56899938	     -0.68761175	     78.53815138	    -16.90437300	      8.00741095	    106.04816485	      1.85088964	     24.16155919	      2.59850975	     -5.60679214	     78.91104596	    -10.06958076	      6.93562830	    105.69555575	      1.84473545	     23.01263082	     -1.39363001	     -5.60679214	    -20.66414494	     -0.59162677	     -1.70295541	      0.92149825	     -2.45900647	      0.48412713	    117.39363949	    108.08104729	     -1.78013152	     -0.33596148	     -2.73863043	    120.03894882	    104.41711781
      0.01000000	      9.92051577	     -0.39533883	      1.08808505	     -0.53503829	      0.56904292	     -0.68766273	     78.51226382	    -16.94963128	      8.03993163	    106.05067851	      1.85093351	     24.51571060	      3.06752397	     -5.81299409	     78.86872537	    -10.01986754	      6.92571526	    105.67467454	      1.84437101	     23.18637592	     -1.22716635	     -5.81299409	    -20.76415857	     -0.60055128	     -1.74059362	      0.96384699	     -2.44385066	      0.55895754	    117.53370509	    106.79762534	     -1.75794365	     -0.34471745	     -2.69745673	    120.25257945	    103.19322525
      0.02000000	      9.95736033	     -0.54866312	      1.09252833	     -0.53522852	      0.56928809	     -0.68772207	     78.36137160	    -16.90837089	      7.80625922	    105.97107694	      1.84954420	     24.34562470	      2.79543648	     -6.08272623	     78.86948890	    -10.06800723	      7.07458723	    105.65471351	      1.84402262	     23.01797970	     -1.38013613	     -6.08272623	    -20.90658533	     -0.39551158	     -1.65640336	      1.04408331	     -2.51452695	      0.48811886	    117.47841917	    108.25791194	     -1.67999061	     -0.29502427	     -2.71310500	    120.14708200	    103.97429798
      0.03000000	     10.09253996	     -0.73939758	      1.08138588	     -0.53548929	      0.56978394	     -0.68788229	     78.05270518	    -16.84952566	      7.54677865	    105.86016548	      1.84760843	     24.43217354	      2.77857708	     -6.16577585	     78.76174122	    -10.14277678	      7.24001577	    105.65286373	      1.84399034	     23.03466049	     -1.36950516	     -6.16577585	    -21.20656248	     -0.12762668	     -1.55061383	      1.19275055	     -2.65696689	      0.44581379	    117.56383595	    108.34752637	     -1.61088620	     -0.18037877	     -2.62120168	    120.20934525	    103.36279954
      0.04000000	     10.13658278	     -0.86322923	      1.08618321	     -0.53567590	      0.57007904	     -0.68788852	     77.90109247	    -16.80882443	      7.36490384	    105.79346627	      1.84644431	     24.41699600	      2.69568132	     -6.37215221	     78.73549417	    -10.19810744	      7.35754062	    105.62542837	      1.84351150	     23.04689240	     -1.38381518	     -6.37215221	    -21.39262513	      0.05240031	     -1.47876105	      1.29730286	     -2.71151936	      0.42230789	    117.63149612	    108.54749148	     -1.52078917	     -0.17862556	     -2.56430884	    120.22216074	    103.02482327
      0.05000000	     10.08602164	     -0.85829653	      1.08537639	     -0.53573892	      0.57007172	     -0.68793470	     77.96452716	    -16.84030274	      7.36401315	    105.77674753	      1.84615252	     24.41934183	      2.80889671	     -6.58350032	     78.78100632	    -10.19038315	      7.34192523	    105.59966500	      1.84306184	     23.00815131	     -1.39728531	     -6.58350032	    -21.46871666	      0.07937081	     -1.45578441	      1.39501175	     -2.77054356	      0.43263018	    117.71312641	    108.45221974	     -1.45771100	     -0.20419490	     -2.53940227	    120.29369719	    102.81018159
      0.06000000	     10.01091366	     -0.80240605	      1.08895163	     -0.53578565	      0.57000866	     -0.68800159	     78.08156113	    -16.89057488	      7.42287814	    105.77218843	      1.84607295	     24.41399444	      2.87045909	     -6.72180413	     78.83315900	    -10.13604058	      7.30225717	    105.56876693	      1.84252257	     22.98948799	     -1.40634537	     -6.72180413	    -21.52441003	      0.05104265	     -1.45364094	      1.51286096	     -2.83564085	      0.49734090	    117.75506206	    108.35233084	     -1.39114484	     -0.20987030	     -2.53413743	    120.23889247	    103.50864933
      0.07000000	      9.99516792	     -0.77124963	      1.10138962	     -0.53578535	      0.57009360	     -0.68806324	     78.09173104	    -16.94759275	      7.45939624	    105.76379967	      1.84592653	     24.67362160	      3.22031019	     -6.80573971	     78.81788680	    -10.11810083	      7.26700584	    105.55261548	      1.84224067	     23.16324850	     -1.23823722	     -6.80573971	    -21.65192286	      0.05539595	     -1.46553730	      1.62972973	     -2.87965471	      0.62437663	    117.90345015	    106.95070878	     -1.33846048	     -0.22336520	     -2.47298665	    120.40666672	    102.38996737
      0.08000000	      9.91160517	     -0.77745492	      1.10199282	     -0.53575091	      0.57005433	     -0.68801511	     78.17472963	    -16.94964981	      7.42116673	    105.74448442	      1.84558942	     24.43983847	      2.96262825	     -6.86500027	     78.91092687	    -10.13822114	      7.24935647	    105.52628250	      1.84178108	     23.00013936	     -1.36912206	     -6.86500027	    -21.69265597	      0.10134956	     -1.45401482	      1.72933758	     -2.96203213	      0.63640941	    117.87752440	    107.95872568	     -1.27115408	     -0.24789046	     -2.57262330	    120.28676979	    103.45376775
      0.09000000	      9.88136801	     -0.73291703	      1.11611071	     -0.53565322	      0.57004811	     -0.68797339	     78.21618827	    -17.01029264	      7.48945633	    105.77082420	      1.84604913	     24.77994411	      3.50667372	     -6.92133457	     78.92612691	    -10.14425361	      7.19986819	    105.53470014	      1.84192799	     23.22275664	     -1.07825003	     -6.92133457	    -21.80617936	      0.08256988	     -1.47769352	      1.87967774	     -3.04460416	      0.80094185	    118.02120412	    106.53793499	     -1.18386614	     -0.23071946	     -2.56162653	    120.47676450	    102.53943440
      0.10000000	      9.83782036	     -0.69184444	      1.13506392	     -0.53548614	      0.56998546	     -0.68780077	     78.28564830	    -17.05981332	      7.50140235	    105.81057686	      1.84674295	     24.80296483	      3.50320353	     -6.96110227	     78.95737045	    -10.14778494	      7.16493276	    105.53809374	      1.84198722	     23.24553382	     -1.06178314	     -6.96110227	    -21.90273315	      0.06284526	     -1.46688404	      1.99737433	     -3.06602024	      0.84800326	    118.11689964	    106.19212901	     -1.07077805	     -0.23502018	     -2.56382071	    120.54107129	    102.23695992
